<svg width="42" height="42" viewBox="0 0 42 42" fill="none" xmlns="http://www.w3.org/2000/svg">
<path fill-rule="evenodd" clip-rule="evenodd" d="M28.0303 15.0303C28.3232 14.7374 28.3232 14.2626 28.0303 13.9697C27.7374 13.6768 27.2626 13.6768 26.9697 13.9697L21 19.9393L15.0303 13.9697C14.7374 13.6768 14.2626 13.6768 13.9697 13.9697C13.6768 14.2626 13.6768 14.7374 13.9697 15.0303L19.9393 21L13.9697 26.9697C13.6768 27.2626 13.6768 27.7374 13.9697 28.0303C14.2626 28.3232 14.7374 28.3232 15.0303 28.0303L21 22.0607L26.9697 28.0303C27.2626 28.3232 27.7374 28.3232 28.0303 28.0303C28.3232 27.7374 28.3232 27.2626 28.0303 26.9697L22.0607 21L28.0303 15.0303Z" fill="#070625"/>
</svg>
