<svg width="49" height="48" viewBox="0 0 49 48" fill="none" xmlns="http://www.w3.org/2000/svg">
<rect x="0.5" width="48" height="48" rx="8" fill="#4041DA" fill-opacity="0.09"/>
<path d="M18.5 21.96C22.13 19.15 26.87 19.15 30.5 21.96" stroke="#4041DA" stroke-width="1.5" stroke-linecap="round" stroke-linejoin="round"/>
<path d="M20.0996 25.0501C22.7696 22.9901 26.2396 22.9901 28.9096 25.0501" stroke="#4041DA" stroke-width="1.5" stroke-linecap="round" stroke-linejoin="round"/>
<path d="M22.2998 28.1399C23.6298 27.1099 25.3698 27.1099 26.6998 28.1399" stroke="#4041DA" stroke-width="1.5" stroke-linecap="round" stroke-linejoin="round"/>
<path d="M21.5 34H27.5C32.5 34 34.5 32 34.5 27V21C34.5 16 32.5 14 27.5 14H21.5C16.5 14 14.5 16 14.5 21V27C14.5 32 16.5 34 21.5 34Z" stroke="#4041DA" stroke-width="1.5" stroke-linecap="round" stroke-linejoin="round"/>
</svg>
