<svg width="48" height="48" viewBox="0 0 48 48" fill="none" xmlns="http://www.w3.org/2000/svg">
<rect width="48" height="48" rx="8" fill="#4041DA" fill-opacity="0.09"/>
<path d="M29.1797 30C31.5797 30 32.1797 28.65 32.1797 27V21C32.1797 19.35 31.5797 18 29.1797 18C26.7797 18 26.1797 19.35 26.1797 21V27C26.1797 28.65 26.7797 30 29.1797 30Z" stroke="#4041DA" stroke-width="1.5" stroke-linecap="round" stroke-linejoin="round"/>
<path d="M18.8203 30C16.4203 30 15.8203 28.65 15.8203 27V21C15.8203 19.35 16.4203 18 18.8203 18C21.2203 18 21.8203 19.35 21.8203 21V27C21.8203 28.65 21.2203 30 18.8203 30Z" stroke="#4041DA" stroke-width="1.5" stroke-linecap="round" stroke-linejoin="round"/>
<path d="M21.8203 24H26.1803" stroke="#4041DA" stroke-width="1.5" stroke-linecap="round" stroke-linejoin="round"/>
<path d="M34.5 26.5V21.5" stroke="#4041DA" stroke-width="1.5" stroke-linecap="round" stroke-linejoin="round"/>
<path d="M13.5 26.5V21.5" stroke="#4041DA" stroke-width="1.5" stroke-linecap="round" stroke-linejoin="round"/>
</svg>
