<svg width="25" height="24" viewBox="0 0 25 24" fill="none" xmlns="http://www.w3.org/2000/svg">
<path d="M10.5427 3.15016L10.5431 3.14985C11.6273 2.27904 13.3675 2.28414 14.468 3.16073C14.4681 3.16084 14.4682 3.16094 14.4684 3.16105L21.014 8.39756C21.0146 8.39802 21.0152 8.39849 21.0157 8.39895C21.393 8.70711 21.7196 9.18942 21.9304 9.74099C22.141 10.2922 22.2196 10.8699 22.1462 11.351L20.8873 18.8845C20.8872 18.885 20.8872 18.8855 20.8871 18.8859C20.6374 20.3188 19.2432 21.5 17.8 21.5H7.19996C5.73549 21.5 4.3725 20.3476 4.12294 18.8965C4.12288 18.8961 4.12282 18.8958 4.12276 18.8955L2.86313 11.3576L2.86293 11.3565C2.78079 10.8718 2.85452 10.293 3.06465 9.74192C3.27476 9.19094 3.60548 8.70909 3.9918 8.40086L3.99267 8.40016L10.5427 3.15016ZM12.5 19.25C13.1861 19.25 13.75 18.6862 13.75 18V15C13.75 14.3139 13.1861 13.75 12.5 13.75C11.8138 13.75 11.25 14.3139 11.25 15V18C11.25 18.6862 11.8138 19.25 12.5 19.25Z" fill="#4041DA" stroke="#4041DA"/>
</svg>
