<svg width="49" height="48" viewBox="0 0 49 48" fill="none" xmlns="http://www.w3.org/2000/svg">
<rect x="0.5" width="48" height="48" rx="24" fill="#4041DA"/>
<path d="M34.5 21V27C34.5 29.5 34 31.25 32.88 32.38L26.5 26L34.23 18.27C34.41 19.06 34.5 19.96 34.5 21Z" stroke="white" stroke-width="1.5" stroke-linecap="round" stroke-linejoin="round"/>
<path d="M34.23 18.27L18.77 33.73C15.76 33.04 14.5 30.96 14.5 27V21C14.5 16 16.5 14 21.5 14H27.5C31.46 14 33.54 15.26 34.23 18.27Z" stroke="white" stroke-width="1.5" stroke-linecap="round" stroke-linejoin="round"/>
<path d="M32.88 32.38C31.75 33.5 30 34 27.5 34H21.5C20.46 34 19.56 33.91 18.77 33.73L26.5 26L32.88 32.38Z" stroke="white" stroke-width="1.5" stroke-linecap="round" stroke-linejoin="round"/>
<path d="M18.7398 19.9802C19.4198 17.0502 23.8198 17.0502 24.4998 19.9802C24.8898 21.7002 23.8098 23.1602 22.8598 24.0602C22.1698 24.7202 21.0798 24.7202 20.3798 24.0602C19.4298 23.1602 18.3398 21.7002 18.7398 19.9802Z" stroke="white" stroke-width="1.5"/>
<path d="M21.5946 20.7002H21.6036" stroke="white" stroke-width="2" stroke-linecap="round" stroke-linejoin="round"/>
</svg>
