<svg width="42" height="42" viewBox="0 0 42 42" fill="none" xmlns="http://www.w3.org/2000/svg">
<rect width="42" height="42" rx="21" fill="white"/>
<path d="M30.6602 19.44L29.6802 23.62C28.8402 27.23 27.1802 28.69 24.0602 28.39C23.5602 28.35 23.0202 28.26 22.4402 28.12L20.7602 27.72C16.5902 26.73 15.3002 24.67 16.2802 20.49L17.2602 16.3C17.4602 15.45 17.7002 14.71 18.0002 14.1C19.1702 11.68 21.1602 11.03 24.5002 11.82L26.1702 12.21C30.3602 13.19 31.6402 15.26 30.6602 19.44Z" stroke="#070625" stroke-width="1.5" stroke-linecap="round" stroke-linejoin="round"/>
<path d="M24.0599 28.39C23.4399 28.81 22.6599 29.16 21.7099 29.47L20.1299 29.99C16.1599 31.27 14.0699 30.2 12.7799 26.23L11.4999 22.28C10.2199 18.31 11.2799 16.21 15.2499 14.93L16.8299 14.41C17.2399 14.28 17.6299 14.17 17.9999 14.1C17.6999 14.71 17.4599 15.45 17.2599 16.3L16.2799 20.49C15.2999 24.67 16.5899 26.73 20.7599 27.72L22.4399 28.12C23.0199 28.26 23.5599 28.35 24.0599 28.39Z" stroke="#070625" stroke-width="1.5" stroke-linecap="round" stroke-linejoin="round"/>
<path d="M21.6401 17.53L26.4901 18.76" stroke="#070625" stroke-width="1.5" stroke-linecap="round" stroke-linejoin="round"/>
<path d="M20.6602 21.4L23.5602 22.14" stroke="#070625" stroke-width="1.5" stroke-linecap="round" stroke-linejoin="round"/>
</svg>
