<svg width="42" height="42" viewBox="0 0 42 42" fill="none" xmlns="http://www.w3.org/2000/svg">
<circle cx="21" cy="21" r="20.5" stroke="#DCDFE6"/>
<path d="M21.0196 11.91C17.7096 11.91 15.0196 14.6 15.0196 17.91V20.8C15.0196 21.41 14.7596 22.34 14.4496 22.86L13.2996 24.77C12.5896 25.95 13.0796 27.26 14.3796 27.7C18.6896 29.14 23.3396 29.14 27.6496 27.7C28.8596 27.3 29.3896 25.87 28.7296 24.77L27.5796 22.86C27.2796 22.34 27.0196 21.41 27.0196 20.8V17.91C27.0196 14.61 24.3196 11.91 21.0196 11.91Z" stroke="#070625" stroke-width="1.5" stroke-miterlimit="10" stroke-linecap="round"/>
<path d="M22.8699 12.1999C22.5599 12.1099 22.2399 12.0399 21.9099 11.9999C20.9499 11.8799 20.0299 11.9499 19.1699 12.1999C19.4599 11.4599 20.1799 10.9399 21.0199 10.9399C21.8599 10.9399 22.5799 11.4599 22.8699 12.1999Z" stroke="#070625" stroke-width="1.5" stroke-miterlimit="10" stroke-linecap="round" stroke-linejoin="round"/>
<path d="M24.0195 28.0601C24.0195 29.7101 22.6695 31.0601 21.0195 31.0601C20.1995 31.0601 19.4395 30.7201 18.8995 30.1801C18.3595 29.6401 18.0195 28.8801 18.0195 28.0601" stroke="#070625" stroke-width="1.5" stroke-miterlimit="10"/>
</svg>
