<svg width="48" height="48" viewBox="0 0 48 48" fill="none" xmlns="http://www.w3.org/2000/svg">
<rect width="48" height="48" rx="8" fill="#4041DA" fill-opacity="0.09"/>
<path d="M27.59 24.26C30.4232 24.26 32.72 21.9632 32.72 19.13C32.72 16.2968 30.4232 14 27.59 14C24.7567 14 22.46 16.2968 22.46 19.13C22.46 21.9632 24.7567 24.26 27.59 24.26Z" stroke="#4041DA" stroke-width="1.5" stroke-miterlimit="10"/>
<path d="M18.3603 31.44C20.0613 31.44 21.4403 30.0611 21.4403 28.36C21.4403 26.659 20.0613 25.28 18.3603 25.28C16.6592 25.28 15.2803 26.659 15.2803 28.36C15.2803 30.0611 16.6592 31.44 18.3603 31.44Z" stroke="#4041DA" stroke-width="1.5" stroke-miterlimit="10"/>
<path d="M28.6196 33.9999C30.0334 33.9999 31.1796 32.8537 31.1796 31.4399C31.1796 30.026 30.0334 28.8799 28.6196 28.8799C27.2057 28.8799 26.0596 30.026 26.0596 31.4399C26.0596 32.8537 27.2057 33.9999 28.6196 33.9999Z" stroke="#4041DA" stroke-width="1.5" stroke-miterlimit="10"/>
</svg>
