<svg width="24" height="24" viewBox="0 0 24 24" fill="none" xmlns="http://www.w3.org/2000/svg">
<path d="M20.5 11.5C20.5 16.4706 16.4706 20.5 11.5 20.5C6.52944 20.5 2.5 16.4706 2.5 11.5C2.5 6.52944 6.52944 2.5 11.5 2.5C16.4706 2.5 20.5 6.52944 20.5 11.5Z" fill="#4041DA" stroke="#4041DA"/>
<path d="M21.3001 21.5001C21.2456 21.5001 21.195 21.4779 21.1636 21.4465L19.3036 19.5865C19.2333 19.5162 19.2235 19.3903 19.3067 19.3006C19.3779 19.2327 19.5021 19.2247 19.5906 19.3077L21.4465 21.1636C21.5152 21.2323 21.5261 21.3538 21.4493 21.443C21.4021 21.4824 21.3476 21.5001 21.3001 21.5001Z" fill="#4041DA" stroke="#4041DA"/>
</svg>
