<svg width="49" height="48" viewBox="0 0 49 48" fill="none" xmlns="http://www.w3.org/2000/svg">
<rect x="0.5" width="48" height="48" rx="8" fill="#4041DA" fill-opacity="0.09"/>
<path d="M14.5 25.0999L17 23.5999C18.54 22.6799 20.46 22.6799 22 23.5999C23.54 24.5199 25.46 24.5199 27 23.5999C28.54 22.6799 30.46 22.6799 32 23.5999L34.5 25.0999" stroke="#4041DA" stroke-width="1.5" stroke-miterlimit="10" stroke-linecap="round" stroke-linejoin="round"/>
<path d="M14.5 15.8999L17 17.3999C18.54 18.3199 20.46 18.3199 22 17.3999C23.54 16.4799 25.46 16.4799 27 17.3999C28.54 18.3199 30.46 18.3199 32 17.3999L34.5 15.8999" stroke="#4041DA" stroke-width="1.5" stroke-miterlimit="10" stroke-linecap="round" stroke-linejoin="round"/>
<path d="M14.5 32.0999L17 30.5999C18.54 29.6799 20.46 29.6799 22 30.5999C23.54 31.5199 25.46 31.5199 27 30.5999C28.54 29.6799 30.46 29.6799 32 30.5999L34.5 32.0999" stroke="#4041DA" stroke-width="1.5" stroke-miterlimit="10" stroke-linecap="round" stroke-linejoin="round"/>
</svg>
