<svg width="24" height="24" viewBox="0 0 24 24" fill="none" xmlns="http://www.w3.org/2000/svg">
<path d="M21.8972 13.3239L21.8873 13.3173L21.8771 13.3112L19.3771 11.8112C17.9182 10.9358 16.1011 10.9369 14.6341 11.8103L14.6323 11.8114C13.0108 12.7861 10.999 12.7861 9.37748 11.8114L9.37713 11.8112C7.91819 10.9358 6.1011 10.9369 4.63408 11.8103L4.63408 11.8103L4.63263 11.8112L2.13591 13.3092C2.00354 13.3851 1.85574 13.3377 1.79177 13.228L1.7918 13.228L1.78863 13.2227C1.71738 13.104 1.76002 12.9471 1.87182 12.8819L1.87184 12.8819L1.87713 12.8787L4.37713 11.3787L4.37748 11.3785C5.99897 10.4038 8.0108 10.4038 9.63228 11.3785L9.63263 11.3787C11.0916 12.2541 12.9087 12.2531 14.3757 11.3796L14.3775 11.3785C15.999 10.4038 18.0108 10.4038 19.6323 11.3785L19.6326 11.3787L22.1326 12.8787L22.1326 12.8787L22.1379 12.8819C22.2464 12.9451 22.2939 13.0903 22.2217 13.2215C22.1626 13.3113 22.0749 13.35 21.9999 13.35C21.9733 13.35 21.9535 13.3469 21.9385 13.3428C21.9242 13.3389 21.911 13.3331 21.8972 13.3239Z" fill="#757C98" stroke="#757C98"/>
<path d="M6.99984 6.85003C5.99984 6.85003 4.99984 6.58003 4.10984 6.05003L1.60984 4.55003C1.25984 4.33003 1.13984 3.87003 1.35984 3.52003C1.56984 3.16003 2.02984 3.05003 2.38984 3.26003L4.88984 4.76003C6.18984 5.54003 7.80984 5.54003 9.11984 4.76003C10.8998 3.69003 13.1098 3.69003 14.8898 4.76003C16.1898 5.54003 17.8098 5.54003 19.1198 4.76003L21.6198 3.26003C21.9798 3.05003 22.4398 3.16003 22.6498 3.52003C22.8598 3.87003 22.7498 4.34003 22.3898 4.55003L19.8898 6.05003C18.1098 7.12003 15.8998 7.12003 14.1198 6.05003C12.8198 5.27003 11.1998 5.27003 9.88984 6.05003C8.99984 6.58003 7.99984 6.85003 6.99984 6.85003Z" fill="#757C98"/>
<path d="M21.9999 20.85C21.8699 20.85 21.7399 20.82 21.6199 20.74L19.1199 19.24C17.8199 18.46 16.1999 18.46 14.8899 19.24C13.1099 20.31 10.8999 20.31 9.11988 19.24C7.81988 18.46 6.19988 18.46 4.88988 19.24L2.38988 20.74C2.02988 20.95 1.56988 20.84 1.35988 20.48C1.14988 20.13 1.25988 19.66 1.61988 19.45L4.11988 17.95C5.89988 16.88 8.10988 16.88 9.88988 17.95C11.1899 18.73 12.8099 18.73 14.1199 17.95C15.8999 16.88 18.1099 16.88 19.8899 17.95L22.3899 19.45C22.7499 19.66 22.8599 20.12 22.6499 20.48C22.4999 20.72 22.2499 20.85 21.9999 20.85Z" fill="#757C98"/>
</svg>
