<svg width="50" height="16" viewBox="0 0 50 16" fill="none" xmlns="http://www.w3.org/2000/svg">
<g clip-path="url(#clip0_887_8450)">
<path d="M27.1121 7.61631C30.2704 6.15457 30.7375 1.38452 26.2451 1.38452H21.0426L19.12 5.23134H20.0248L17.7251 14.4252H23.7569C28.1574 14.4636 30.1365 9.17611 27.1121 7.61631ZM23.7569 11.0785H22.249L22.8144 9.00127H24.2469C25.9434 9.34741 24.8879 11.1554 23.7569 11.0785ZM24.6617 6.65458H23.38L23.7569 4.8466H25.1894C26.5736 5.19284 25.378 6.73157 24.6617 6.65458Z" fill="#005FAF" stroke="#005FAF" stroke-width="0.205384"/>
<path d="M39.462 6.29732L41.437 2.73961L38.7645 1.31714L38.4159 1.75614C36.9742 0.977406 29.4249 2.05264 28.9521 9.65174C29.2347 16.0265 36.235 14.8798 36.9216 14.4753L38.8469 10.414C36.9613 11.6814 33.1003 12.2899 32.9369 8.48275C33.2756 5.34331 36.9081 4.1709 39.462 6.29732ZM49.3176 1.38442H43.2459L41.316 5.11608H42.3074L37.7317 14.4251H42.1607L43.07 12.1798H45.7888L45.8566 14.4251H49.9337L49.3176 1.38442ZM44.3018 9.1567L45.7887 5.53512L45.8565 9.1567H44.3018Z" fill="#005FAF" stroke="#005FAF" stroke-width="0.205384"/>
<path d="M11.4011 13.8025L11.637 13.7327L11.3783 13.3679L11.4011 13.8025ZM7.52889 13.7404L7.48327 14.0665C7.60067 14.0548 7.74519 14.158 7.80281 13.9267C7.79848 13.7465 7.66401 13.7366 7.52889 13.7404ZM9.40805 13.7327C9.38848 13.6439 9.31584 13.5785 9.13413 13.6396L9.19499 13.9733C9.34427 13.9395 9.42102 13.8494 9.40805 13.7327ZM5.16297 13.4596L5.09033 13.7561C5.20708 13.761 5.34382 13.8577 5.42132 13.682C5.42651 13.5719 5.43095 13.4622 5.16297 13.4596ZM9.24828 14.2218L9.30157 14.5634C9.42621 14.5666 9.53993 14.4901 9.50696 14.3305C9.47518 14.177 9.34881 14.2013 9.24828 14.2218Z" fill="#005FAF"/>
<path d="M14.1958 1.56018C10.1673 -0.533924 5.35624 -0.475684 1.51793 1.46885C-0.461323 5.02424 -0.524343 9.9988 1.51793 14.4047C5.74658 16.5883 10.4235 16.4445 14.2255 14.4961C16.0123 10.7554 16.3074 6.25412 14.1958 1.56018ZM7.39214 12.1766L7.15335 12.1794C7.09422 11.5061 6.93651 10.9402 6.59816 10.5072C5.04665 8.52184 1.87508 10.0166 2.69003 6.6425C3.11377 4.91758 7.94711 3.90026 7.39214 12.1766ZM2.69576 8.84415C3.03453 9.54777 5.15702 9.66304 5.8938 10.2016C7.06255 11.0559 6.89478 12.1797 6.89478 12.1797H6.61913C6.07649 10.4825 4.55351 11.8263 3.33364 11.3692C2.56777 11.0912 2.01172 9.8864 2.69576 8.84415ZM6.56282 14.3771L6.67697 13.4533L6.88235 13.4688L6.79101 14.4857C6.69891 14.9336 6.04438 14.8737 5.9618 14.4469L6.06827 13.3912L6.31171 13.4301L6.20523 14.315C6.21874 14.6078 6.50661 14.5903 6.56282 14.3771ZM5.46985 14.6293L5.23571 14.5716C5.26317 14.3742 5.49266 13.9725 5.03908 13.9725L4.91282 14.4975L4.65447 14.4481L4.92893 13.1877C5.59978 13.2622 5.65848 13.4527 5.67177 13.6572C5.64529 13.8158 5.60389 13.9266 5.46996 13.9537C5.6267 14.0989 5.47179 14.4031 5.46985 14.6293ZM3.98276 13.2176C3.91822 13.3049 3.78905 13.6101 3.77035 13.8533C3.75046 14.1111 3.99314 14.0568 4.05356 14.0267C4.10231 14.0026 4.13853 13.7955 4.13853 13.7955L3.9686 13.7377L4.02524 13.5645L4.40769 13.6945L4.2236 14.3448L4.06783 14.3014L4.08199 14.2002C3.89131 14.2889 3.54226 14.2224 3.50129 13.9979C3.46033 13.8176 3.58442 13.2708 3.78451 13.0154C3.97898 12.767 4.45276 13.0097 4.46433 13.1599C4.47579 13.3094 4.41796 13.4778 4.41796 13.4778L4.2396 13.4435C4.2396 13.4435 4.25051 13.3894 4.26608 13.3042C4.28251 13.214 4.05194 13.1237 3.98276 13.2176ZM7.46056 14.276L7.41494 14.835L7.2248 14.8273L7.29323 13.4998C7.7681 13.5099 8.04029 13.5769 8.03121 13.9191C8.00288 14.3865 7.6319 14.2814 7.46056 14.276ZM7.93392 12.1796H7.61579C7.58758 11.03 7.8042 8.92732 7.21226 7.37988C6.76377 6.2068 5.62875 5.67911 5.37721 4.7315C4.97898 3.2316 5.65675 1.60871 7.93392 1.48374C9.90809 1.69056 10.5146 3.24572 10.1779 4.69367C9.59894 6.14139 9.01986 5.93336 8.29896 7.37546C7.71016 8.92136 7.93435 10.9466 7.93392 12.1796ZM11.4621 14.3071L11.2415 14.3848L11.1729 13.0496L11.4316 12.9797L12.0707 14.082L11.8957 14.1985L11.6826 13.8881L11.4392 13.9812L11.4621 14.3071ZM8.8882 12.1796H8.63374C8.84345 9.22723 12.4793 9.86864 12.8116 8.84415C13.3862 9.85982 13.1796 10.7162 12.5796 11.1552C11.0885 12.2466 9.65871 10.3476 8.8882 12.1796ZM10.2374 13.6707L10.3515 14.284C10.4225 14.4253 10.4707 14.3991 10.5797 14.3849C10.7061 14.2916 10.6797 14.2007 10.6558 14.0821L10.8764 14.0511C10.9339 14.4954 10.7269 14.5407 10.5721 14.5712C10.2402 14.5955 10.1751 14.5295 10.0853 14.0899C10.0329 13.7137 9.94258 13.3164 10.2526 13.2438C10.7615 13.1645 10.7315 13.3982 10.7775 13.562L10.5569 13.601C10.5217 13.4602 10.471 13.4044 10.3591 13.4148C10.2571 13.4625 10.2153 13.5399 10.2374 13.6707ZM9.7733 14.3071C9.78389 14.5005 9.71957 14.6289 9.59829 14.672L9.08094 14.7807L8.87555 13.4998C8.9817 13.4822 9.50219 13.2876 9.62866 13.6397C9.69103 13.8547 9.62639 13.9318 9.55256 14.0277C9.69255 14.0736 9.73979 14.1848 9.7733 14.3071ZM8.44478 7.87944C9.59731 4.56814 12.2346 5.1533 12.8195 6.64261C13.6208 9.63105 11.0405 8.8115 9.38771 10.037C8.76302 10.5913 8.4343 11.2274 8.42943 12.1915H8.14622C8.12925 10.2495 8.09844 8.87437 8.44478 7.87944Z" fill="#005FAF"/>
</g>
<defs>
<clipPath id="clip0_887_8450">
<rect width="50" height="16" fill="white"/>
</clipPath>
</defs>
</svg>
